# xmcd
#
# Track frame offsets:
#	150
#	15671
#	30846
#	38741
#	49645
#	61081
#	72686
#	83321
#	97918
#	112095
#	126444
#	137343
#	150190
#	161326
#	179050
#	188690
#	203351
#	214738
#	226632
#	235052
#
# Disc length: 3347 seconds
#
# Revision: 1
# Processed by: cddbd v1.5.2PL0 Copyright (c) Steve Scherf et al.
# Submitted via: EasyCDDAExtractor 15.3.0.1
#
DISCID=ec0d1114
DTITLE=Various Artist - Dem Land Tirol die Treue
DYEAR=2005
DGENRE=Country
TTITLE0=Seespitzler - Dem Land Tirol die Treue
TTITLE1=Tiroler Kirchtagsmusig - Patscherkofel Landler
TTITLE2=Leukentaler Saitenmusig - Hahnpfalz Polka
TTITLE3=Bletzacher Familienmusig - Ziachsolo  - Dorfstrassn Landler
TTITLE4=Tiroler Tanzgeiger - Tramplan
TTITLE5=Tuxa Machtl and Kohlstatt Franz - De Schmuggla vom Landl
TTITLE6=Die Unterlandler - 07-Alpler Marsch
TTITLE7=Eisenkeller Musig - Tiroler Walzer
TTITLE8=Seespitzler - Festtags-Marsch
TTITLE9=Kitzbühler Trachtensänger - Über'n Hütt'nanger
TTITLE10=Kitzbühler Feischtagmusig - Scheffauer Walzer
TTITLE11=Tiroler Kirchtagsmusig - Alpbacher Marsch
TTITLE12=Stubenmusig Moser/Margreiter - Zillertaler Landler
TTITLE13=Strasser Diandln - Auf tirolerischen Almen
TTITLE14=Leukentaler Saitenmusig - Auf da Stanglalm
TTITLE15=Schlaitner Sänger - Bua wann d'willst auf d'Hahnpfalz giehn
TTITLE16=Kitzbühler Harfenduo - Zillertaler Tanz'l
TTITLE17=Achentaler Saitenmusik - Beim Schützenwirt
TTITLE18=Flügelhornduo Moser/Margreiter - Ach Himmel es ist verspielt
TTITLE19=Oberleiter Markus - Dem Land Tirol die Treue
EXTD=
EXTT0=
EXTT1=
EXTT2=
EXTT3=
EXTT4=
EXTT5=
EXTT6=
EXTT7=
EXTT8=
EXTT9=
EXTT10=
EXTT11=
EXTT12=
EXTT13=
EXTT14=
EXTT15=
EXTT16=
EXTT17=
EXTT18=
EXTT19=
PLAYORDER=
